<svg xmlns="http://www.w3.org/2000/svg" xmlns:xlink="http://www.w3.org/1999/xlink" fill="none" version="1.1" width="24" height="24" viewBox="0 0 24 24"><g><g><path d="M13.129498,1.84813645L20.629499,6.9604607C21.174118,7.3317289,21.499826,7.9467306,21.5,8.6041341L21.5,19.507668C21.499998,20.608002,20.604568,21.499998,19.5,21.5L4.4999998,21.5C3.39542985,21.499998,2.49999977111818,20.608002,2.5,19.507668L2.5,8.604631900000001C2.5000075530997,7.947052,2.82573521,7.3318281,3.37050003,6.9604607L10.8704996,1.84813634C11.5514126,1.38395448,12.4485874,1.38395448,13.129498,1.84813645ZM11.2359991,9.5136347L10.306998700000001,11.3565407L8.1899991,11.658877C7.5209994,11.784892,7.2624998,12.602745,7.7584991,13.076421L9.2609997,14.5109L8.9004998,16.575454C8.8139997,17.238401,9.528999800000001,17.733496,10.1424994,17.417213L11.999999,16.461393L13.857498,17.417712L13.892498,17.435143C14.509498,17.720545,15.210999,17.207520000000002,15.093998,16.538096L14.738997,14.511896L16.270498,13.04803C16.736497999999997,12.561403,16.454498,11.750525,15.769498,11.652899L13.692997,11.3570375L12.763997,9.5141315C12.451498,8.893519900000001,11.5484972,8.893519900000001,11.2359972,9.5141315L11.2359991,9.5136347Z" fill="#1677FF" fill-opacity="1"/></g></g></svg>