<svg xmlns="http://www.w3.org/2000/svg" xmlns:xlink="http://www.w3.org/1999/xlink" fill="none" version="1.1" width="24" height="24" viewBox="0 0 24 24"><g><g><path d="M1.5,6.9999912L1.5,15.999969C1.5,16.552252,1.94771418,16.999966999999998,2.4999975,16.999966999999998C3.0522808,16.999966999999998,3.499995,16.552252,3.499995,15.999969L3.499995,6.9999912Q3.499995,6.1715653,4.0857801,5.5857804Q4.6715653,4.9999951,5.49999,4.9999955L17.49996,4.9999951C18.052242,4.9999951,18.499958,4.552281,18.499958,3.9999975599999997C18.499958,3.44771421,18.052242,3,17.49996,3L5.4999909,3Q3.8431399,3,2.6715698999999997,4.1715701Q1.5,5.343140099999999,1.5,6.9999912ZM6.2956824,20.290012C6.2601805,20.325233,6.2275925,20.362843,6.1980753,20.402462Q6.0327759,20.275385,5.8786688,20.121277Q4.9999914,19.242599,4.9999914,17.999964L4.9999914,9.499984300000001Q4.9999914,8.2573466,5.8786688,7.3786693Q6.7573462,6.4999917,7.9999843,6.4999917L19.499954,6.4999917Q20.742594,6.4999917,21.621269,7.3786693Q22.499949,8.2573481,22.499949,9.499984300000001L22.499949,16.659669L18.162825,12.5908051Q17.279460999999998,11.7620792,16.068331999999998,11.7790041Q14.857203,11.7959299,13.99734,12.6490164L6.2956824,20.290012ZM9.49998,12.9999762C10.3284054,12.9999762,10.9999762,12.3284044,10.9999762,11.499979C10.9999762,10.6715541,10.3284054,9.9999833,9.49998,9.9999833C8.671555,9.9999833,7.9999843,10.6715541,7.9999843,11.499979C7.9999843,12.3284044,8.671555,12.9999762,9.49998,12.9999762ZM19.499954,20.999956L8.4197717,20.999956L15.405949,14.068809Q15.69257,13.784446,16.096277999999998,13.778804Q16.499988000000002,13.773162,16.794443,14.049404L22.266891,19.183371Q22.047419,19.695129,21.621269,20.121281Q20.742592,20.999956,19.499954,20.999956Z" fill-rule="evenodd" fill="#1677FF" fill-opacity="1"/></g></g></svg>